<svg xmlns="http://www.w3.org/2000/svg" viewBox="0 0 100 100"><polygon fill="#78a1d1" points="87,68 61,15 51.5,26.5 48,26.5 40,9 13,67.999 24.5,73 30,77 70,77 75,73"/><polygon fill="#c6dff1" points="63.5,46.5 69.5,49.5 71.487,43.5 76.941,47.5 61,15 51.5,26.5 48,26.5 40,9 22.381,47.5 27.5,43.5 31.5,49.5 36.486,46.5"/><path fill="#fff" d="M63.5,46.5c0,3-6,4-6,9s12,5,12,12c0,2.761-2.239,5-5,5c0,3,11,3,11,9.5c0,3.59-4.046,6.5-9.037,6.5 c-2.353,0-4.489-0.652-6.097-1.712c-1.852,2.186-5.791,3.699-10.366,3.699s-8.513-1.513-10.366-3.699 c-1.608,1.06-3.744,1.712-6.097,1.712c-4.991,0-9.037-2.91-9.037-6.5c0-6.5,11-6.5,11-9.5c-2.761,0-5-2.239-5-5c0-7,12-7,12-12 s-6.014-6-6.014-9c0-5.5,11.014-7,11.014-21c0-0.5,1-1,2.5-1s2.5,0.5,2.5,1C52.5,39.5,63.5,41,63.5,46.5z"/><g><path fill="#1f212b" d="M31.5,50c-0.161,0-0.32-0.078-0.416-0.223l-3.701-5.552l-4.694,3.668l-0.615-0.787l5.119-4 c0.109-0.086,0.25-0.124,0.387-0.1c0.138,0.021,0.26,0.1,0.337,0.216l3.735,5.603l4.577-2.754l0.516,0.857l-4.986,3 C31.677,49.977,31.588,50,31.5,50z"/><path fill="#1f212b" d="M52.5,76.606c-0.211,0-0.407-0.135-0.476-0.346c-0.085-0.263,0.059-0.545,0.321-0.63 c0.995-0.322,1.855-0.834,2.488-1.48c0.193-0.197,0.512-0.199,0.707-0.008c0.197,0.193,0.201,0.51,0.008,0.707 c-0.746,0.762-1.747,1.361-2.895,1.732C52.603,76.599,52.551,76.606,52.5,76.606z"/><path fill="#1f212b" d="M56.369,73c-0.042,0-0.085-0.005-0.129-0.017c-0.267-0.071-0.425-0.345-0.354-0.612 C55.962,72.087,56,71.794,56,71.5c0-0.276,0.224-0.5,0.5-0.5s0.5,0.224,0.5,0.5c0,0.38-0.05,0.76-0.147,1.129 C56.793,72.853,56.591,73,56.369,73z"/><path fill="#1f212b" d="M49.5,76.98c-0.01,0-0.02,0-0.029-0.001C45.842,76.767,43,74.359,43,71.5c0-0.276,0.224-0.5,0.5-0.5 s0.5,0.224,0.5,0.5c0,2.331,2.429,4.299,5.529,4.481c0.275,0.016,0.486,0.253,0.47,0.528C49.983,76.775,49.763,76.98,49.5,76.98z"/><path fill="#1f212b" d="M39.488,68c-0.184,0-0.36-0.102-0.447-0.276c-0.124-0.246-0.024-0.547,0.223-0.671 C39.341,67.014,47,63.041,47,52.5c0-0.276,0.224-0.5,0.5-0.5s0.5,0.224,0.5,0.5c0,11.18-8.206,15.406-8.289,15.447 C39.639,67.983,39.563,68,39.488,68z"/><path fill="#1f212b" d="M60.513,68c-0.075,0-0.151-0.017-0.224-0.053C60.206,67.906,52,63.68,52,52.5 c0-0.276,0.224-0.5,0.5-0.5s0.5,0.224,0.5,0.5c0,10.568,7.658,14.514,7.736,14.553c0.247,0.123,0.347,0.424,0.224,0.671 C60.872,67.898,60.696,68,60.513,68z"/><path fill="#1f212b" d="M69.5,50c-0.077,0-0.153-0.018-0.224-0.053l-6-3l0.447-0.895l5.484,2.742l1.817-5.453 c0.051-0.151,0.171-0.27,0.323-0.318s0.317-0.021,0.447,0.073l5.441,4l-0.592,0.807l-4.889-3.594l-1.782,5.349 c-0.046,0.138-0.149,0.248-0.283,0.304C69.63,49.987,69.564,50,69.5,50z"/><path fill="#1f212b" d="M87.9,67.56l-26-53c-0.15-0.31-0.45-0.51-0.78-0.55c-0.34-0.04-0.67,0.09-0.89,0.35l-8.58,10.39 c0.54,0.19,0.85,0.47,0.85,0.75c0,0.45,0.01,0.89,0.03,1.32l8.25-9.99l24.85,50.66l-11.01,4.59c-0.09,0.03-0.17,0.08-0.24,0.14 l-4.113,3.29c0.672,0.291,1.342,0.61,1.978,0.972l3.265-2.612l11.87-4.95c0.26-0.1,0.46-0.31,0.56-0.57 C88.03,68.09,88.02,67.81,87.9,67.56z"/><path fill="#1f212b" d="M27.657,76.536c0.649-0.376,1.337-0.704,2.027-1.005L25.09,72.19c-0.06-0.04-0.12-0.08-0.19-0.11 l-10.57-4.59L40,11.4l7.09,15.52c0.07,0.16,0.19,0.3,0.34,0.4c0.05-0.58,0.07-1.19,0.07-1.82c0-0.27,0.3-0.54,0.81-0.73l-7.4-16.19 C40.75,8.23,40.39,8,40,8s-0.75,0.23-0.91,0.58l-27,59c-0.11,0.25-0.12,0.53-0.02,0.78c0.09,0.25,0.28,0.45,0.53,0.56L24,73.87 L27.657,76.536z"/><path fill="#1f212b" d="M71.146,74.807l-1.765,1.412C72.209,77.397,75,78.882,75,82c0,3.309-3.83,6-8.538,6 c-2,0-3.952-0.506-5.495-1.425l-0.683-0.406l-0.55,0.573c-1.923,2.002-5.653,3.245-9.734,3.245s-7.812-1.243-9.734-3.245 l-0.55-0.573l-0.683,0.406C37.49,87.494,35.538,88,33.538,88C28.83,88,25,85.309,25,82c0-3.118,2.791-4.602,5.62-5.782 c-0.011-0.008-0.019-0.021-0.03-0.028l-1.837-1.336C25.881,76.179,23,78.144,23,82c0,4.411,4.727,8,10.538,8 c2.078,0,4.125-0.472,5.847-1.338c2.398,2.094,6.294,3.325,10.615,3.325s8.217-1.231,10.615-3.325 C62.337,89.528,64.384,90,66.462,90C72.273,90,77,86.411,77,82C77,78.099,74.052,76.132,71.146,74.807z"/><path fill="#1f212b" d="M50,90.987c-4.393,0-8.343-1.353-10.455-3.553C37.846,88.446,35.73,89,33.537,89 C28.278,89,24,85.859,24,82c0-4.209,4.086-5.849,7.37-7.167c1.528-0.614,2.988-1.2,3.467-1.873C32.115,72.632,30,70.309,30,67.5 c0-4.104,3.736-5.946,7.032-7.571C39.698,58.614,42,57.479,42,55.5c0-2.579-1.724-3.977-3.392-5.327 c-1.349-1.093-2.622-2.125-2.622-3.673c0-2.337,1.763-3.981,3.804-5.885C43.002,37.618,47,33.889,47,25.5c0-0.883,1.233-1.5,3-1.5 s3,0.617,3,1.5c0,8.389,3.992,12.118,7.201,15.115C62.239,42.52,64,44.164,64,46.5c0,1.548-1.271,2.58-2.616,3.673 C59.72,51.523,58,52.921,58,55.5c0,1.979,2.302,3.114,4.968,4.429C66.264,61.554,70,63.396,70,67.5c0,2.809-2.115,5.132-4.837,5.46 c0.479,0.673,1.938,1.259,3.467,1.873C71.914,76.151,76,77.791,76,82c0,3.859-4.278,7-9.537,7c-2.193,0-4.309-0.554-6.008-1.565 C58.343,89.635,54.393,90.987,50,90.987z M39.635,86.288c0.143,0,0.283,0.061,0.382,0.177c1.813,2.14,5.731,3.522,9.983,3.522 s8.171-1.383,9.983-3.522c0.164-0.193,0.444-0.231,0.657-0.095c1.595,1.051,3.662,1.63,5.822,1.63C71.17,88,75,85.309,75,82 c0-3.532-3.582-4.971-6.742-6.239C65.973,74.844,64,74.052,64,72.5c0-0.133,0.053-0.26,0.146-0.354S64.367,72,64.5,72 c2.481,0,4.5-2.019,4.5-4.5c0-3.482-3.291-5.105-6.475-6.675C59.684,59.425,57,58.102,57,55.5c0-3.056,2.081-4.746,3.753-6.104 C61.959,48.417,63,47.571,63,46.5c0-1.902-1.536-3.337-3.481-5.154C56.346,38.382,52,34.323,52,25.5c-0.066-0.123-0.745-0.5-2-0.5 s-1.934,0.377-2.006,0.534c0.006,8.789-4.345,12.848-7.521,15.812c-1.948,1.817-3.486,3.253-3.486,5.154 c0,1.071,1.044,1.917,2.252,2.896C40.914,50.754,43,52.444,43,55.5c0,2.602-2.684,3.925-5.525,5.325 C34.291,62.395,31,64.018,31,67.5c0,2.481,2.019,4.5,4.5,4.5c0.276,0,0.5,0.224,0.5,0.5c0,1.552-1.973,2.344-4.258,3.261 C28.582,77.029,25,78.468,25,82c0,3.309,3.83,6,8.537,6c2.16,0,4.228-0.579,5.822-1.63C39.444,86.315,39.54,86.288,39.635,86.288z"/><path fill="#1f212b" d="M50,90.987c-6.317,0-11.455-2.766-11.95-6.433c-0.037-0.274,0.154-0.526,0.428-0.563 c0.277-0.051,0.526,0.154,0.563,0.428c0.422,3.122,5.236,5.567,10.96,5.567s10.538-2.445,10.96-5.567 c0.036-0.273,0.278-0.477,0.563-0.428c0.273,0.036,0.465,0.288,0.428,0.563C61.455,88.222,56.317,90.987,50,90.987z"/></g></svg>