<svg xmlns="http://www.w3.org/2000/svg" viewBox="0 0 48 48"><circle cx="27" cy="19" r="12" fill="#7da6d9"/><circle cx="35" cy="24" r="9" fill="#7da6d9"/><circle cx="29" cy="26" r="9" fill="#7da6d9"/><circle cx="18" cy="25" r="9" fill="#7da6d9"/><circle cx="23" cy="25" r="9" fill="#7da6d9"/><circle cx="11" cy="25" r="8" fill="#7da6d9"/><circle cx="16" cy="18" r="7" fill="#7da6d9"/><polygon fill="#ffa200" points="19,25 27,25 24,33 28,33 20,45 21,37 17,37"/><polygon fill="#ffa301" points="19.034,25 26.948,25 23.966,33.017 27.948,33.017 20.025,44.931 21.025,36.983 17.034,36.983"/><polygon fill="#ffa402" points="19.069,25 26.897,25 23.931,33.034 27.897,33.034 20.049,44.862 21.051,36.966 17.069,36.966"/><polygon fill="#ffa503" points="19.103,25 26.845,25 23.897,33.052 27.845,33.052 20.074,44.793 21.076,36.948 17.103,36.948"/><polygon fill="#ffa604" points="19.138,25 26.793,25 23.862,33.069 27.793,33.069 20.099,44.725 21.101,36.931 17.138,36.931"/><polygon fill="#ffa704" points="19.172,25 26.741,25 23.828,33.086 27.741,33.086 20.123,44.656 21.127,36.914 17.172,36.914"/><polygon fill="#ffa805" points="19.207,25 26.69,25 23.793,33.103 27.69,33.103 20.148,44.587 21.152,36.897 17.207,36.897"/><polygon fill="#ffa906" points="19.241,25 26.638,25 23.759,33.121 27.638,33.121 20.173,44.518 21.177,36.879 17.241,36.879"/><polygon fill="#ffaa07" points="19.276,25 26.586,25 23.724,33.138 27.586,33.138 20.197,44.449 21.202,36.862 17.276,36.862"/><polygon fill="#ffab08" points="19.31,25 26.534,25 23.69,33.155 27.534,33.155 20.222,44.38 21.228,36.845 17.31,36.845"/><polygon fill="#ffac09" points="19.345,25 26.483,25 23.655,33.172 27.483,33.172 20.246,44.311 21.253,36.828 17.345,36.828"/><polygon fill="#ffad0a" points="19.379,25 26.431,25 23.621,33.19 27.431,33.19 20.271,44.242 21.278,36.81 17.379,36.81"/><polygon fill="#ffae0b" points="19.414,25 26.379,25 23.586,33.207 27.379,33.207 20.296,44.174 21.304,36.793 17.414,36.793"/><polygon fill="#ffaf0b" points="19.448,25 26.328,25 23.552,33.224 27.328,33.224 20.32,44.105 21.329,36.776 17.448,36.776"/><polygon fill="#ffb00c" points="19.483,25 26.276,25 23.517,33.241 27.276,33.241 20.345,44.036 21.354,36.759 17.483,36.759"/><polygon fill="#ffb10d" points="19.517,25 26.224,25 23.483,33.259 27.224,33.259 20.37,43.967 21.38,36.741 17.517,36.741"/><polygon fill="#ffb20e" points="19.552,25 26.172,25 23.448,33.276 27.172,33.276 20.394,43.898 21.405,36.724 17.552,36.724"/><polygon fill="#ffb30f" points="19.586,25 26.121,25 23.414,33.293 27.121,33.293 20.419,43.829 21.43,36.707 17.586,36.707"/><polygon fill="#ffb410" points="19.621,25 26.069,25 23.379,33.31 27.069,33.31 20.444,43.76 21.456,36.69 17.621,36.69"/><polygon fill="#ffb511" points="19.655,25 26.017,25 23.345,33.328 27.017,33.328 20.468,43.691 21.481,36.672 17.655,36.672"/><polygon fill="#ffb612" points="19.69,25 25.966,25 23.31,33.345 26.966,33.345 20.493,43.623 21.506,36.655 17.69,36.655"/><polygon fill="#ffb712" points="19.724,25 25.914,25 23.276,33.362 26.914,33.362 20.518,43.554 21.532,36.638 17.724,36.638"/><polygon fill="#ffb813" points="19.759,25 25.862,25 23.241,33.379 26.862,33.379 20.542,43.485 21.557,36.621 17.759,36.621"/><polygon fill="#ffb914" points="19.793,25 25.81,25 23.207,33.397 26.81,33.397 20.567,43.416 21.582,36.603 17.793,36.603"/><polygon fill="#ffba15" points="19.828,25 25.759,25 23.172,33.414 26.759,33.414 20.591,43.347 21.607,36.586 17.828,36.586"/><polygon fill="#ffbb16" points="19.862,25 25.707,25 23.138,33.431 26.707,33.431 20.616,43.278 21.633,36.569 17.862,36.569"/><polygon fill="#ffbc17" points="19.897,25 25.655,25 23.103,33.448 26.655,33.448 20.641,43.209 21.658,36.552 17.897,36.552"/><polygon fill="#ffbd18" points="19.931,25 25.603,25 23.069,33.466 26.603,33.466 20.665,43.14 21.683,36.534 17.931,36.534"/><polygon fill="#ffbe19" points="19.966,25 25.552,25 23.034,33.483 26.552,33.483 20.69,43.072 21.709,36.517 17.966,36.517"/><polygon fill="#ffbf1a" points="20,25 25.5,25 23,33.5 26.5,33.5 20.715,43.003 21.734,36.5 18,36.5"/><polygon fill="#ffbf1a" points="20.034,25 25.448,25 22.966,33.517 26.448,33.517 20.739,42.934 21.759,36.483 18.034,36.483"/><polygon fill="#ffc01b" points="20.069,25 25.397,25 22.931,33.534 26.397,33.534 20.764,42.865 21.785,36.466 18.069,36.466"/><polygon fill="#ffc11c" points="20.103,25 25.345,25 22.897,33.552 26.345,33.552 20.789,42.796 21.81,36.448 18.103,36.448"/><polygon fill="#ffc21d" points="20.138,25 25.293,25 22.862,33.569 26.293,33.569 20.813,42.727 21.835,36.431 18.138,36.431"/><polygon fill="#ffc31e" points="20.172,25 25.241,25 22.828,33.586 26.241,33.586 20.838,42.658 21.861,36.414 18.172,36.414"/><polygon fill="#ffc41f" points="20.207,25 25.19,25 22.793,33.603 26.19,33.603 20.863,42.59 21.886,36.397 18.207,36.397"/><polygon fill="#ffc520" points="20.241,25 25.138,25 22.759,33.621 26.138,33.621 20.887,42.521 21.911,36.379 18.241,36.379"/><polygon fill="#ffc621" points="20.276,25 25.086,25 22.724,33.638 26.086,33.638 20.912,42.452 21.936,36.362 18.276,36.362"/><polygon fill="#ffc721" points="20.31,25 25.034,25 22.69,33.655 26.034,33.655 20.937,42.383 21.962,36.345 18.31,36.345"/><polygon fill="#ffc822" points="20.345,25 24.983,25 22.655,33.672 25.983,33.672 20.961,42.314 21.987,36.328 18.345,36.328"/><polygon fill="#ffc923" points="20.379,25 24.931,25 22.621,33.69 25.931,33.69 20.986,42.245 22.012,36.31 18.379,36.31"/><polygon fill="#ffca24" points="20.414,25 24.879,25 22.586,33.707 25.879,33.707 21.01,42.176 22.038,36.293 18.414,36.293"/><polygon fill="#ffcb25" points="20.448,25 24.828,25 22.552,33.724 25.828,33.724 21.035,42.107 22.063,36.276 18.448,36.276"/><polygon fill="#ffcc26" points="20.483,25 24.776,25 22.517,33.741 25.776,33.741 21.06,42.039 22.088,36.259 18.483,36.259"/><polygon fill="#ffcd27" points="20.517,25 24.724,25 22.483,33.759 25.724,33.759 21.084,41.97 22.114,36.241 18.517,36.241"/><polygon fill="#ffce28" points="20.552,25 24.672,25 22.448,33.776 25.672,33.776 21.109,41.901 22.139,36.224 18.552,36.224"/><polygon fill="#ffcf28" points="20.586,25 24.621,25 22.414,33.793 25.621,33.793 21.134,41.832 22.164,36.207 18.586,36.207"/><polygon fill="#ffd029" points="20.621,25 24.569,25 22.379,33.81 25.569,33.81 21.158,41.763 22.19,36.19 18.621,36.19"/><polygon fill="#ffd12a" points="20.655,25 24.517,25 22.345,33.828 25.517,33.828 21.183,41.694 22.215,36.172 18.655,36.172"/><polygon fill="#ffd22b" points="20.69,25 24.466,25 22.31,33.845 25.466,33.845 21.208,41.625 22.24,36.155 18.69,36.155"/><polygon fill="#ffd32c" points="20.724,25 24.414,25 22.276,33.862 25.414,33.862 21.232,41.556 22.266,36.138 18.724,36.138"/><polygon fill="#ffd42d" points="20.759,25 24.362,25 22.241,33.879 25.362,33.879 21.257,41.488 22.291,36.121 18.759,36.121"/><polygon fill="#ffd52e" points="20.793,25 24.31,25 22.207,33.897 25.31,33.897 21.282,41.419 22.316,36.103 18.793,36.103"/><polygon fill="#ffd62f" points="20.828,25 24.259,25 22.172,33.914 25.259,33.914 21.306,41.35 22.341,36.086 18.828,36.086"/><polygon fill="#ffd72f" points="20.862,25 24.207,25 22.138,33.931 25.207,33.931 21.331,41.281 22.367,36.069 18.862,36.069"/><polygon fill="#ffd830" points="20.897,25 24.155,25 22.103,33.948 25.155,33.948 21.355,41.212 22.392,36.052 18.897,36.052"/><polygon fill="#ffd931" points="20.931,25 24.103,25 22.069,33.966 25.103,33.966 21.38,41.143 22.417,36.034 18.931,36.034"/><polygon fill="#ffda32" points="20.966,25 24.052,25 22.034,33.983 25.052,33.983 21.405,41.074 22.443,36.017 18.966,36.017"/><polygon fill="#ffdb33" points="21,25 24,25 22,34 25,34 21.429,41.005 22.468,36 19,36"/><radialGradient id="Anc7bh9_LmncmrGKUCOCJa" cx="27" cy="19" r="12" gradientUnits="userSpaceOnUse"><stop offset="0" stop-color="#e0ecff"/><stop offset="1" stop-color="#e0ecff" stop-opacity="0"/></radialGradient><circle cx="27" cy="19" r="12" fill="url(#Anc7bh9_LmncmrGKUCOCJa)"/><radialGradient id="Anc7bh9_LmncmrGKUCOCJb" cx="35" cy="24" r="9" gradientUnits="userSpaceOnUse"><stop offset="0" stop-color="#e0ecff"/><stop offset="1" stop-color="#e0ecff" stop-opacity="0"/></radialGradient><circle cx="35" cy="24" r="9" fill="url(#Anc7bh9_LmncmrGKUCOCJb)"/><radialGradient id="Anc7bh9_LmncmrGKUCOCJc" cx="29" cy="24" r="9" gradientUnits="userSpaceOnUse"><stop offset="0" stop-color="#e0ecff"/><stop offset="1" stop-color="#e0ecff" stop-opacity="0"/></radialGradient><circle cx="29" cy="24" r="9" fill="url(#Anc7bh9_LmncmrGKUCOCJc)"/><radialGradient id="Anc7bh9_LmncmrGKUCOCJd" cx="18" cy="24" r="9" gradientUnits="userSpaceOnUse"><stop offset="0" stop-color="#e0ecff"/><stop offset="1" stop-color="#e0ecff" stop-opacity="0"/></radialGradient><circle cx="18" cy="24" r="9" fill="url(#Anc7bh9_LmncmrGKUCOCJd)"/><radialGradient id="Anc7bh9_LmncmrGKUCOCJe" cx="23" cy="23" r="9" gradientUnits="userSpaceOnUse"><stop offset="0" stop-color="#e0ecff"/><stop offset="1" stop-color="#e0ecff" stop-opacity="0"/></radialGradient><circle cx="23" cy="23" r="9" fill="url(#Anc7bh9_LmncmrGKUCOCJe)"/><radialGradient id="Anc7bh9_LmncmrGKUCOCJf" cx="11" cy="25" r="8" gradientUnits="userSpaceOnUse"><stop offset="0" stop-color="#e0ecff"/><stop offset="1" stop-color="#e0ecff" stop-opacity="0"/></radialGradient><circle cx="11" cy="25" r="8" fill="url(#Anc7bh9_LmncmrGKUCOCJf)"/><radialGradient id="Anc7bh9_LmncmrGKUCOCJg" cx="16" cy="18" r="7" gradientUnits="userSpaceOnUse"><stop offset="0" stop-color="#e0ecff"/><stop offset="1" stop-color="#e0ecff" stop-opacity="0"/></radialGradient><circle cx="16" cy="18" r="7" fill="url(#Anc7bh9_LmncmrGKUCOCJg)"/><radialGradient id="Anc7bh9_LmncmrGKUCOCJh" cx="29.546" cy="41.917" r="3.356" fx="28.005" fy="41.922" gradientTransform="matrix(0 -1 .8265 0 -5.097 71.464)" gradientUnits="userSpaceOnUse"><stop offset="0" stop-color="#b3f1ff"/><stop offset=".166" stop-color="#9ee4fc"/><stop offset=".509" stop-color="#68c2f3"/><stop offset=".996" stop-color="#118ce6"/><stop offset="1" stop-color="#108ce6"/></radialGradient><path fill="url(#Anc7bh9_LmncmrGKUCOCJh)" d="M32,42.5c0,1.381-1.119,2.5-2.5,2.5S27,43.881,27,42.5c0-2,2-5,2.5-5S32,40.5,32,42.5z"/><radialGradient id="Anc7bh9_LmncmrGKUCOCJi" cx="12.037" cy="39.034" r="2.685" fx="10.804" fy="39.038" gradientTransform="matrix(0 -1 .8265 0 -20.223 51.07)" gradientUnits="userSpaceOnUse"><stop offset="0" stop-color="#b3f1ff"/><stop offset=".166" stop-color="#9ee4fc"/><stop offset=".509" stop-color="#68c2f3"/><stop offset=".996" stop-color="#118ce6"/><stop offset="1" stop-color="#108ce6"/></radialGradient><path fill="url(#Anc7bh9_LmncmrGKUCOCJi)" d="M14,39.5c0,1.105-0.895,2-2,2s-2-0.895-2-2c0-1.6,1.6-4,2-4S14,37.9,14,39.5z"/><radialGradient id="Anc7bh9_LmncmrGKUCOCJj" cx="38.037" cy="37.534" r="2.685" fx="36.804" fy="37.538" gradientTransform="matrix(0 -1 .8265 0 7.017 75.57)" gradientUnits="userSpaceOnUse"><stop offset="0" stop-color="#b3f1ff"/><stop offset=".166" stop-color="#9ee4fc"/><stop offset=".509" stop-color="#68c2f3"/><stop offset=".996" stop-color="#118ce6"/><stop offset="1" stop-color="#108ce6"/></radialGradient><path fill="url(#Anc7bh9_LmncmrGKUCOCJj)" d="M40,38c0,1.105-0.895,2-2,2s-2-0.895-2-2c0-1.6,1.6-4,2-4S40,36.4,40,38z"/></svg>