<svg xmlns="http://www.w3.org/2000/svg" viewBox="0 0 24 24">
  <path d="M17.782,5.057C16.522,3.212,14.403,2,12,2C8.803,2,6.113,4.145,5.275,7.073C2.86,7.427,1,9.487,1,12c0,2.761,2.239,5,5,5h11c3.314,0,6-2.686,6-6C23,7.952,20.726,5.441,17.782,5.057z" opacity=".35" fill="#5B5B5B" />
  <path d="M5,6.005C4.054,6.95,2.826,7.427,1.588,7.451C0.89,7.464,0.476,8.22,0.861,8.802c0.412,0.623,0.984,1.172,1.741,1.586c1.635,0.894,3.698,0.811,5.226-0.256c2.636-1.841,2.871-5.497,0.706-7.662c-0.227-0.227-0.47-0.424-0.726-0.595c-0.587-0.391-1.35,0.013-1.363,0.718C6.423,3.83,5.946,5.058,5,6.005z" fill="#5B5B5B" />
  <circle cx="12" cy="21" r="1" fill="#5B5B5B" />
  <circle cx="16" cy="20" r="1" fill="#5B5B5B" />
  <circle cx="8" cy="20" r="1" fill="#5B5B5B" />
</svg>