<svg xmlns="http://www.w3.org/2000/svg" viewBox="0 0 48 48">
  <path d="M23.976562 2.9785156 A 1.50015 1.50015 0 0 0 22.5 4.5L22.5 7.0859375L21.371094 6.2792969 A 1.50015 1.50015 0 1 0 19.628906 8.7207031L22.5 10.771484L22.5 15L19.669922 15 A 1.50015 1.50015 0 0 0 18.371094 15.75L16.957031 18.201172L13.294922 16.085938L12.953125 12.574219 A 1.50015 1.50015 0 0 0 11.441406 11.197266 A 1.50015 1.50015 0 0 0 9.96875 12.863281L10.101562 14.244141L7.8632812 12.951172 A 1.50015 1.50015 0 1 0 6.3632812 15.548828L8.6015625 16.841797L7.3398438 17.416016 A 1.50015 1.50015 0 1 0 8.5820312 20.146484L11.794922 18.685547L15.457031 20.798828L14.041016 23.25 A 1.50015 1.50015 0 0 0 14.041016 24.75L15.457031 27.201172L11.794922 29.314453L8.5820312 27.853516 A 1.50015 1.50015 0 1 0 7.3398438 30.583984L8.6015625 31.158203L6.3632812 32.451172 A 1.50015 1.50015 0 1 0 7.8632812 35.048828L10.101562 33.755859L9.96875 35.136719 A 1.50015 1.50015 0 1 0 12.953125 35.425781L13.294922 31.914062L16.957031 29.798828L18.371094 32.25 A 1.50015 1.50015 0 0 0 19.669922 33L22.5 33L22.5 37.228516L19.628906 39.279297 A 1.50015 1.50015 0 1 0 21.371094 41.720703L22.5 40.914062L22.5 43.5 A 1.50015 1.50015 0 1 0 25.5 43.5L25.5 40.914062L26.628906 41.720703 A 1.50015 1.50015 0 1 0 28.371094 39.279297L25.5 37.228516L25.5 33L28.330078 33 A 1.50015 1.50015 0 0 0 29.628906 32.25L31.042969 29.798828L34.705078 31.914062L35.046875 35.425781 A 1.50015 1.50015 0 1 0 38.03125 35.136719L37.898438 33.755859L40.136719 35.048828 A 1.50015 1.50015 0 1 0 41.636719 32.451172L39.398438 31.158203L40.660156 30.583984 A 1.50015 1.50015 0 1 0 39.417969 27.853516L36.205078 29.314453L32.542969 27.201172L33.958984 24.75 A 1.50015 1.50015 0 0 0 33.958984 23.25L32.542969 20.798828L36.205078 18.685547L39.417969 20.146484 A 1.50015 1.50015 0 1 0 40.660156 17.416016L39.398438 16.841797L41.636719 15.548828 A 1.50015 1.50015 0 1 0 40.136719 12.951172L37.898438 14.244141L38.03125 12.863281 A 1.50015 1.50015 0 0 0 36.513672 11.197266 A 1.50015 1.50015 0 0 0 35.046875 12.574219L34.705078 16.085938L31.042969 18.201172L29.628906 15.75 A 1.50015 1.50015 0 0 0 28.330078 15L25.5 15L25.5 10.771484L28.371094 8.7207031 A 1.50015 1.50015 0 1 0 26.628906 6.2792969L25.5 7.0859375L25.5 4.5 A 1.50015 1.50015 0 0 0 23.976562 2.9785156 z M 20.535156 18L23.753906 18 A 1.50015 1.50015 0 0 0 24.240234 18L27.464844 18L29.042969 20.734375 A 1.50015 1.50015 0 0 0 29.349609 21.263672L29.351562 21.267578L30.927734 24L29.322266 26.783203 A 1.50015 1.50015 0 0 0 29.072266 27.212891L27.464844 30L24.246094 30 A 1.50015 1.50015 0 0 0 23.976562 29.978516 A 1.50015 1.50015 0 0 0 23.757812 30L20.535156 30L18.925781 27.210938 A 1.50015 1.50015 0 0 0 18.681641 26.789062L17.072266 24L18.650391 21.267578 A 1.50015 1.50015 0 0 0 18.958984 20.732422 A 1.50015 1.50015 0 0 0 18.958984 20.730469L20.535156 18 z" fill="#5B5B5B" />
</svg>