<svg xmlns="http://www.w3.org/2000/svg" viewBox="0 0 30 30"><path fill="#ffeea3" d="M13.5,24.881l-0.248-0.043c-0.556-0.099-1.113-0.248-1.655-0.445l-0.236-0.085l-2.802,1.85 l0.2-3.343l-0.191-0.162c-0.439-0.371-0.85-0.781-1.218-1.219L7.187,21.24l-3.344,0.201l1.85-2.801l-0.086-0.236 c-0.197-0.543-0.347-1.101-0.444-1.655L5.12,16.5L2.118,15l3.002-1.5l0.043-0.248c0.098-0.555,0.247-1.112,0.444-1.655l0.086-0.236 l-1.85-2.801L7.187,8.76L7.35,8.567c0.368-0.438,0.778-0.848,1.218-1.219l0.191-0.162l-0.2-3.343l2.802,1.85l0.236-0.085 c0.542-0.197,1.1-0.347,1.655-0.445L13.5,5.119L15,2.118l1.5,3.001l0.248,0.043c0.556,0.099,1.113,0.248,1.655,0.445l0.236,0.085 l2.802-1.85l-0.2,3.343l0.191,0.162c0.439,0.371,0.85,0.781,1.218,1.219l0.162,0.192l3.344-0.201l-1.85,2.801l0.086,0.236 c0.197,0.543,0.347,1.101,0.444,1.655L24.88,13.5l3.002,1.5l-3.002,1.5l-0.043,0.248c-0.098,0.555-0.247,1.112-0.444,1.655 l-0.086,0.236l1.85,2.801l-3.344-0.201l-0.162,0.192c-0.368,0.438-0.778,0.848-1.218,1.219l-0.191,0.162l0.2,3.343l-2.802-1.85 l-0.236,0.085c-0.542,0.197-1.1,0.347-1.655,0.445L16.5,24.881L15,27.882L13.5,24.881z"/><path fill="#ba9b48" d="M15,3.236l0.941,1.882l0.225,0.45l0.495,0.088c0.527,0.093,1.056,0.235,1.572,0.422l0.473,0.171 l0.419-0.277l1.757-1.16l-0.126,2.094l-0.03,0.502l0.384,0.324c0.417,0.351,0.807,0.741,1.158,1.158l0.324,0.384l0.501-0.03 l2.094-0.126l-1.16,1.757l-0.277,0.419l0.171,0.472c0.187,0.516,0.329,1.045,0.422,1.572l0.088,0.495l0.45,0.225L26.764,15 l-1.882,0.941l-0.45,0.225l-0.088,0.495c-0.093,0.527-0.235,1.056-0.422,1.572l-0.171,0.472l0.277,0.419l1.16,1.757l-2.094-0.126 l-0.501-0.03l-0.324,0.384c-0.351,0.417-0.741,0.807-1.158,1.158l-0.384,0.324l0.03,0.501l0.126,2.094l-1.757-1.16l-0.419-0.277 l-0.473,0.171c-0.516,0.187-1.045,0.329-1.572,0.422l-0.495,0.088l-0.225,0.45L15,26.764l-0.941-1.882l-0.225-0.45l-0.495-0.088 c-0.527-0.093-1.056-0.235-1.572-0.422l-0.473-0.171l-0.419,0.277l-1.757,1.16l0.126-2.094l0.03-0.501L8.89,22.269 c-0.418-0.352-0.807-0.741-1.158-1.158l-0.324-0.384l-0.501,0.03l-2.094,0.126l1.16-1.757l0.277-0.419l-0.171-0.472 c-0.187-0.516-0.329-1.045-0.422-1.572l-0.088-0.495l-0.45-0.225L3.236,15l1.882-0.941l0.45-0.225l0.088-0.495 c0.093-0.527,0.235-1.056,0.422-1.572l0.171-0.472l-0.277-0.419l-1.16-1.757l2.094,0.126l0.501,0.03l0.324-0.384 c0.351-0.417,0.741-0.807,1.158-1.158l0.384-0.324l-0.03-0.502L9.118,4.812l1.757,1.16l0.419,0.277l0.473-0.171 c0.516-0.187,1.045-0.329,1.572-0.422l0.495-0.088l0.225-0.45L15,3.236 M15,1l-1.835,3.67c-0.599,0.106-1.179,0.264-1.739,0.467 L8,2.876l0.246,4.091c-0.462,0.389-0.89,0.817-1.279,1.279L2.876,8l2.262,3.426c-0.203,0.56-0.361,1.14-0.467,1.739L1,15 l3.67,1.835c0.106,0.599,0.264,1.179,0.467,1.739L2.876,22l4.091-0.246c0.389,0.462,0.817,0.89,1.279,1.279L8,27.124l3.426-2.262 c0.56,0.203,1.14,0.361,1.739,0.467L15,29l1.835-3.67c0.599-0.106,1.179-0.264,1.739-0.467L22,27.124l-0.246-4.091 c0.462-0.389,0.89-0.817,1.279-1.279L27.124,22l-2.262-3.426c0.203-0.56,0.361-1.14,0.467-1.739L29,15l-3.67-1.835 c-0.106-0.599-0.264-1.179-0.467-1.739L27.124,8l-4.091,0.245c-0.389-0.462-0.817-0.89-1.279-1.279L22,2.876l-3.426,2.262 c-0.56-0.203-1.14-0.361-1.739-0.467L15,1L15,1z"/><path fill="#f5ce85" d="M15 8A7 7 0 1 0 15 22A7 7 0 1 0 15 8Z"/></svg>