<svg xmlns="http://www.w3.org/2000/svg" viewBox="0 0 64 64"><path fill="#ed7899" d="M45,50c0,7.68-6.66,13.8-14.51,12.91c-5.84-0.65-10.6-5.31-11.37-11.14 c-0.66-4.98,1.51-9.5,5.12-12.19c0.49-0.36,0.76-0.95,0.76-1.56V8c0-3.87,3.13-7,7-7h0.22C36.05,1.12,39,4.46,39,8.29v29.72 c0,0.61,0.26,1.2,0.75,1.57C42.93,41.95,45,45.73,45,50z"/><path fill="#e0678f" d="M25 19H31.961V36.962H25z"/><path fill="#ef8eb1" d="M45,50c0,3.92-1.73,7.43-4.48,9.81l-0.971-0.971c-1.259-1.259-1.585-3.228-0.672-4.757 C39.591,52.886,40,51.49,40,50c0-1.996-0.738-3.826-1.953-5.231c-1.079-1.247-1.375-2.987-0.648-4.467l0.841-1.712 C42.27,40.8,45,45.08,45,50z"/><path fill="#85cbf8" d="M39,8.29V17l-14,1.94V8c0-3.86,3.11-6.98,6.96-7h0.26C36.05,1.12,39,4.46,39,8.29z"/><path fill="#7bbeeb" d="M31.96,8.829V19.96H25V9c0-0.214,0.01-0.427,0.028-0.636C25.416,4.04,31.96,4.488,31.96,8.829z"/><path fill="#f9dd8f" d="M7,29h8.23c1.812,0,3.591-0.493,5.145-1.425l25.25-15.15C47.179,11.493,48.957,11,50.77,11H57 c1.105,0,2-0.895,2-2v0c0-1.105-0.895-2-2-2h-7.23c-1.812,0-3.591,0.493-5.145,1.425l-25.25,15.15C17.821,24.507,16.043,25,14.23,25 H7c-1.105,0-2,0.895-2,2v0C5,28.105,5.895,29,7,29z"/><path fill="#8d6c9f" d="M38.002 53.604c-.285.473-.132 1.087.341 1.373.161.097.339.143.515.143.339 0 .67-.172.858-.484C40.556 53.239 41 51.637 41 50c0-.579-.056-1.159-.165-1.725-.105-.542-.631-.898-1.172-.792-.542.105-.897.63-.792 1.172C38.957 49.096 39 49.548 39 50 39 51.273 38.655 52.52 38.002 53.604zM35.545 42.757c-.303.462-.174 1.082.288 1.384.476.312.913.682 1.3 1.099.197.213.465.32.733.32.244 0 .487-.088.68-.267.405-.375.429-1.008.054-1.413-.497-.536-1.059-1.011-1.67-1.412C36.468 42.166 35.849 42.295 35.545 42.757z"/><path fill="#8d6c9f" d="M57,6h-7.23c-1.99,0-3.95,0.54-5.66,1.57L40,10.04V8.29c0-4.44-3.48-8.16-7.75-8.29 C30.06-0.06,28,0.74,26.43,2.26C24.86,3.78,24,5.82,24,8v11.64l-5.14,3.08c-1.4,0.84-3,1.28-4.63,1.28H7c-1.65,0-3,1.35-3,3 c0,1.65,1.35,3,3,3h8.23c1.99,0,3.95-0.54,5.66-1.57L24,26.56v11.46c0,0.31-0.13,0.59-0.35,0.76c-4.14,3.08-6.2,7.99-5.52,13.12 c0.82,6.25,5.97,11.3,12.24,12.01c0.54,0.06,1.07,0.09,1.6,0.09c3.44,0,6.78-1.26,9.35-3.56C44.3,57.79,46,53.98,46,50 c0-4.46-2.06-8.55-5.65-11.22C40.13,38.61,40,38.33,40,38.01V16.96l6.14-3.68c1.4-0.84,3-1.28,4.63-1.28H57c1.65,0,3-1.35,3-3 C60,7.35,58.65,6,57,6z M26,14.961h2.961c0.552,0,1-0.448,1-1s-0.448-1-1-1H26v-3h4.961c0.552,0,1-0.448,1-1s-0.448-1-1-1H26V7.96 c0.01-1.63,0.66-3.14,1.82-4.27C28.95,2.6,30.43,2,32,2h0.19C35.39,2.1,38,4.92,38,8.29v2.95l-12,7.2V14.961z M39.16,40.38 C42.23,42.67,44,46.18,44,50c0,3.41-1.46,6.68-4.01,8.95c-2.58,2.31-5.92,3.36-9.39,2.97c-5.37-0.61-9.78-4.93-10.49-10.28 c-0.58-4.41,1.18-8.62,4.73-11.26c0.73-0.54,1.16-1.42,1.16-2.36v-0.059h4.961c0.552,0,1-0.448,1-1s-0.448-1-1-1H26v-3h2.961 c0.552,0,1-0.448,1-1s-0.448-1-1-1H26v-3h4.961c0.552,0,1-0.448,1-1s-0.448-1-1-1H26V25.36l12-7.2v19.85 C38,38.96,38.43,39.84,39.16,40.38z M57,10h-6.23c-1.99,0-3.95,0.54-5.66,1.57L40,14.64l-2,1.2l-12,7.2l-2,1.2l-4.14,2.48 c-1.4,0.84-3,1.28-4.63,1.28H7c-0.55,0-1-0.45-1-1s0.45-1,1-1h7.23c1.99,0,3.95-0.54,5.66-1.57L24,21.96l2-1.2l12-7.2l2-1.2 l5.14-3.08c1.4-0.84,3-1.28,4.63-1.28H57c0.55,0,1,0.45,1,1S57.55,10,57,10z"/></svg>