<svg xmlns="http://www.w3.org/2000/svg" viewBox="0 0 50 50">
  <path d="M4.210938 2.359375L2.796875 3.773438L13.785156 14.757813C13.765625 14.757813 13.746094 14.753906 13.722656 14.75L38.972656 40L39.027344 40L46.015625 46.984375L47.425781 45.574219L41.816406 39.964844C46.390625 39.59375 50 35.765625 50 31.097656C50 26.539063 46.554688 22.769531 42.128906 22.257813C42.140625 22.066406 42.140625 21.878906 42.140625 21.695313C42.140625 14.445313 36.242188 8.546875 28.992188 8.546875C24.113281 8.546875 19.652344 11.300781 17.394531 15.542969 Z M 11.210938 15.066406C8.539063 15.929688 6.5625 18.347656 6.363281 21.25C2.582031 22.628906 0 26.257813 0 30.328125C0 35.660156 4.339844 40 9.671875 40L36.144531 40Z" fill="#FFFFFF" />
</svg>